<svg id="Capa_1" data-name="Capa 1" xmlns="http://www.w3.org/2000/svg" viewBox="0 0 50 50"><defs><style>.cls-1{fill:#fff;fill-rule:evenodd;}</style></defs><title>Sin título-1</title><path class="cls-1" d="M19.65,25.16v19.9a.52.52,0,0,0,.52.52h7.39a.52.52,0,0,0,.52-.52V24.84h5.36a.52.52,0,0,0,.51-.48l.52-6.09a.53.53,0,0,0-.52-.56H28.08V13.39a1.83,1.83,0,0,1,1.83-1.84H34a.52.52,0,0,0,.52-.52V4.94A.52.52,0,0,0,34,4.42h-7a7.42,7.42,0,0,0-7.42,7.41v5.88H16a.52.52,0,0,0-.52.52v6.09a.52.52,0,0,0,.52.52h3.69Z"/></svg>