<svg id="Capa_1" data-name="Capa 1" xmlns="http://www.w3.org/2000/svg" viewBox="0 0 50 50"><defs><style>.cls-1{fill:#fff;}</style></defs><title>Sin título-1</title><path class="cls-1" d="M38.55,13.78a2.44,2.44,0,1,1-2.43-2.43A2.43,2.43,0,0,1,38.55,13.78Zm-3,10.92A10.24,10.24,0,1,1,25.29,14.47,10.24,10.24,0,0,1,35.52,24.7Zm-3.68,0a6.56,6.56,0,1,0-6.55,6.56A6.56,6.56,0,0,0,31.84,24.7ZM46,16.48A12.48,12.48,0,0,0,33.52,4h-17A12.48,12.48,0,0,0,4,16.48v17A12.48,12.48,0,0,0,16.48,46h17A12.48,12.48,0,0,0,46,33.52ZM41.9,33.33a8.57,8.57,0,0,1-8.57,8.57H16.67A8.57,8.57,0,0,1,8.1,33.33V16.67A8.57,8.57,0,0,1,16.67,8.1H33.33a8.57,8.57,0,0,1,8.57,8.57Z"/></svg>