<svg id="Capa_2" data-name="Capa 2" xmlns="http://www.w3.org/2000/svg" viewBox="0 0 1824.59 366.15"><defs><style>.cls-1{fill:#aa392d;}.cls-2{fill:#fff;}</style></defs><title>Logo</title><path class="cls-1" d="M1666.39,271.48c-2-23.23,7.74-46.92,28.48-65,11.13-9.68,8.12-15.08-.19-24.14-28.29-30.84-35.54-66.19-17.25-104.58,18-37.81,49.18-55.76,90.91-55.86,42.12-.1,74,19.21,90.37,56.75,14,32,12.91,66.85-11,95.18-13.56,16.09-9.1,27.22,1.06,41,46.55,63.14,21.37,139.91-52.91,162.1C1732.67,395.83,1665.65,343.68,1666.39,271.48Zm89.11,67.72c8.64,0,12.84,0,17,0,30.23-.11,49.48-16.48,57.27-48.67,6.63-27.36-4.54-54-28-66.76-23.21-12.62-63.73-6.27-83.23,13.08-14.62,14.51-25.47,30.82-27.33,52.23-1.53,17.69,11.92,15,21.88,17.64.81.22.64,3.21,1.41,4.65C1724.34,329.34,1733.65,348.16,1755.5,339.2Zm64.25-209.92c5.58-32-24.55-67.26-56.1-66.1-28.8,1.05-64.22,28.59-62.19,51.47,4,44.8,18,59.2,70.93,61.45C1806.43,177.54,1820,162.9,1819.75,129.28Z" transform="translate(-47.71 -21.92)"/><path class="cls-2" d="M49.5,196c.11-31.06,14.46-52.95,43-64.29,6.85-2.72,13.13-7.91,22.21.21,4.7,4.2,19.61,3.48,25.16-1,19.52-15.62,37.65-5.7,56.33-.54,13.23,3.65,27.87,23.29,38.2-4.35.89-2.39,14.68-7.3,13.5,6-1.82,20.54,6.65,39.19,9.68,58.81,1.56,10.09,3.19,18.88-7.34,23.6-10.71,4.81-17-2.88-23-10.43-36-45.31-88.14-59.57-138.76-37.48-8.68,3.78-8.58,14.12-11,21.77-2,6.5-21.52,3.44-10.43,9.89,13.31,7.73,10.82,29.43,33.74,28.82,19.42-.52,41.92-4.18,60,11.16,8.75,7.41,10-7.19,17.87-8.49C225.43,222,278.83,271.29,269.31,317c-1.79,8.57,6.89,17-3.73,26.51-25.63,23-52.22,41.55-87.94,42.89-23,.86-45.12-4-67-10.3-13.09-3.8-25.4-7.94-37.32,4.14-5.51,5.59-14.81,4.85-21.28.19-6-4.33-4.46-11.07-3.15-18.2,3.66-20,1.45-40.29-.93-60.34-1.37-11.52,2.86-18.88,14.26-18.82,12.65.06,12.15,7.88,7.77,17.21-.91,2,1.89,5.67,3,8.57,17.44-8.39,15,11,21.66,16.76,15.25,13.26,26,25.35,51.54,24.66,25.9-.7,50.76-5.77,76-8.56,7.39-.82,13.53-12.81,20.24-19.68-11.47-10.49,12.66-27.91-8.75-38.29-13.52-6.55-26.48-18.49-41-16.84-31.59,3.6-60.83-10.49-92.56-7.57C70.6,262,49.38,232.16,49.5,196Z" transform="translate(-47.71 -21.92)"/><path class="cls-2" d="M1132.65,388.08c-15.62-3-31.5-5-46.79-9.17-16.85-4.6-32.65-13.25-48.94,2.72-4.84,4.74-14.48,3-20.86-2.84s-2.82-11.16-.4-17.85c6.26-17.31,1-35.15-1.86-52.28-2.14-12.71-2.2-23.05,11.84-25.09,16.62-2.42,12.5,7.87,10.09,18.65-3.14,14,13.37,1.34,18.28,12.53,18.86,42.9,59.06,37.77,95,34,16.84-1.75,37.25-1.35,50.12-19.4,9.78-13.71,9.62-36.25-3.79-46.57-12.85-9.89-27.54-18.5-43.76-16.36-29.82,4-57.49-9.23-87.34-7.68-19,1-36.6-11.74-43.67-32.61-8.49-25.06-10.16-50.69,7.85-71.54,13.83-16,29.15-35,56.3-22,5.21,2.5,14.81,1.91,19.41-1.39,24.42-17.55,46.55-4.34,68.25,4.68,9.81,4.07,16.71,11.47,21.6-4.18,2.07-6.64,7.67-8.93,14.13-7.49,12.16,2.7.66,8.4,1.41,12.53,3.21,17.64,5.76,35.49,10.59,52.7,2.77,9.88,5,18.95-4.79,24.38-11.54,6.4-18.89-1.88-24.47-10.92-24.54-39.68-61.54-51.17-104.57-42.4-16.6,3.38-40.48.9-43.46,29.36-2,19.46,8.2,33,27.19,36.4,17.71,3.18,37.38-2.17,53.27,10.75,2.08,1.69,6.34,2.24,9,1.42,60.92-18.46,107.19,19.51,100.19,82.43-3.68,33-41.63,61.62-87,65.4-4.18.34-8.42,0-12.63,0Z" transform="translate(-47.71 -21.92)"/><path class="cls-2" d="M737.47,277.26c.42,7.05,1.65,18,1.61,28.89-.07,16.86,5.83,27.38,24.44,28,12.26.39,21.32,4.9,19.73,19.88-1.68,15.78-13.35,16.14-24.26,14.64-24.1-3.33-47.85-9.72-72.22-.94-7.39,2.66-13.62-1.76-15.26-9.27-1.79-8.14-3.38-19.49,7-21.4,40.72-7.46,39.44-36.46,40.05-68.11.63-32.37-6.17-63.41-9.77-95-1.38-12.15-11.28-16.54-21.31-17.85-15.15-2-18.22-11.6-15.44-23.35,4-17.07,13.77-4,21.27-2.79,5.49.86,12.91,5.12,15.68-2.35,5.13-13.85,15.85-8.65,22.11-5.28,16,8.6,30.07,5.11,45.68-.4,56.48-20,116.08,1.16,122,47.79,4.08,32.11,11.33,65.67,3.12,99-2.38,9.66-3.79,20.44-2,30,3,16.27-.07,38.57,28.56,36.25,10.61-.85,16.77,6.41,16.11,18-.69,11.83-8,15-18.48,16.16-27.35,3.07-54.21-11.24-81.93-1.54-5.77,2-10.33-4.73-11.05-11.25-.84-7.65-1.44-16.17,7.45-19.46,38.67-14.31,43.21-42.72,35.12-78.46-3.66-16.14-7-32.79-5.55-49.9,3.31-39.4-17.59-55-58.72-64.72-4.78-1.12-10.2,0-14.75-1.52-11.88-4.08-18.27-5.54-22.23,11.47-2,8.68-11.88,19.77-23.25,28.05-15.56,11.32-8.8,37.14-13.3,56.41C735.33,249.31,737.47,261.59,737.47,277.26Z" transform="translate(-47.71 -21.92)"/><path class="cls-2" d="M378.78,265.87c-10.21,8.45,1.38,14.06-1.94,20.33-1.71-.25-4.1-.08-4.34-.72-5.56-14.76-13.07-29.22-15.72-44.51-3.91-22.55-10.33-46.76,13.52-64.43,6.09-4.51,7.65-12.81,8.64-20.5,4.68-36.35,35-61.74,72.05-57.57,15.89,1.8,35.69-10.38,47.71,10.53.64,1.1,5.33,1.44,6.66.34,27.29-22.48,48.56,1.26,71,10.15,10,4,2.49,24.18,21.74,26.85,7.28,1-4.13,21.35,2.92,32.08-18.87,11.08-5.52,18.68,2.06,28.54,8.07,10.5,3.69,19.33-9,22.43a68.32,68.32,0,0,1-22.45,1.91c-49.29-4.78-98.58,10.69-147.77,0C397.39,225.61,390,248.53,399,269.12c19.37,44.28,46.88,60.14,93.95,53.43a71.74,71.74,0,0,1,27.52,1.13c27.88,7.25,44.23-17.19,67.14-23.2,1-.26,2.3-3.51,2-3.81-5.59-5.32-14.9-10.79,1.13-14.21,8.89-1.89,14.47,3.13,18.17,10.36,4.52,8.84,1.79,16.28-5.58,22.29-1.27,1-3,1.48-4.48,2.27-54.39,28.66-111,40.25-171.52,22.56-15.78-4.61-26.5-10.87-28.74-30.63C396.87,294.76,389.75,279.3,378.78,265.87ZM495.7,210.1c13.52,0,25.34.77,37-.14,32.1-2.51,39.31-19.8,23.95-47-11.46-20.34-27.77-29.9-48.79-34C476,122.66,444.31,114.29,419,147.23c-6.63,8.63-9.71,18.81-17.07,26.79-12.53,13.58-6.53,23.17,9.4,26.51C439.68,206.48,467.21,220.55,495.7,210.1Z" transform="translate(-47.71 -21.92)"/><path class="cls-2" d="M1498.23,229.92c-38.47-1.32-76.49,9.84-115.57,2.42-23.12-4.38-32.6,13.61-22.28,35.29,22.78,47.79,43.84,56.43,98.29,55.38,31.1-.59,59.82-.56,85.11-20.73,2.26-1.8,8.85-1.4,6.65-5-4.14-6.81-11.47-12.55,3-14.72,10.14-1.52,15.81,4.79,18.89,13.19,3.46,9.47-1.17,16.07-9.3,20.9-48.11,28.51-100.69,35-154.94,29.21-27.6-2.95-46.93-17.11-52.21-47.73-2.33-13.51-3.93-32-26.49-31.5-4.76.11-6.59-7.3-7.35-12.27-4.23-27.69-14.27-56,11.41-79.9,5.09-4.74,8.42-13.11,9.38-20.24,4.08-30.29,32-59.91,61.48-56.66,19,2.1,42-9.89,58.17,12.09,5.84,7.91,10.5-6.14,19.58-6.54,24-1,51.47,9.49,61.79,31a22.29,22.29,0,0,0,4.42,6.13c15.26,14.93,15.62,23.05,5.07,42.28-4.92,9,3,15.59,8.91,21.46,14.57,14.5,7.36,23.48-8.59,25.44C1535.42,231.64,1516.72,229.92,1498.23,229.92Zm-41.12-19.81c14,0,26.71,1,39.21-.23,20.72-2,37-19.57,32.23-32.24-20.77-55.56-120-76.69-151-27.28-4.8,7.66-6.5,17-13.4,23.43-15.47,14.3-6.08,23,8.18,26.17C1400.58,206.27,1428.07,221,1457.11,210.11Z" transform="translate(-47.71 -21.92)"/></svg>