<svg id="Capa_1" data-name="Capa 1" xmlns="http://www.w3.org/2000/svg" viewBox="0 0 50 50"><defs><style>.cls-1{fill:#fff;}</style></defs><title>Sin título-1</title><path class="cls-1" d="M45.76,11.9a17.64,17.64,0,0,1-4.27,1.21c.68-.11,1.66-1.35,2.06-1.84A7.64,7.64,0,0,0,44.94,8.7a.17.17,0,0,0,0-.22.3.3,0,0,0-.23,0,21.51,21.51,0,0,1-5,1.92.35.35,0,0,1-.35-.09,4.62,4.62,0,0,0-.43-.45,9,9,0,0,0-2.44-1.49,8.45,8.45,0,0,0-3.72-.6,8.9,8.9,0,0,0-3.54,1,9.09,9.09,0,0,0-2.86,2.33,8.8,8.8,0,0,0-1.7,3.42,9.28,9.28,0,0,0-.09,3.6c0,.2,0,.23-.17.2-6.9-1-12.61-3.49-17.25-8.78-.2-.23-.31-.23-.48,0-2,3-1,7.93,1.5,10.33a13.91,13.91,0,0,0,1.06.94,9,9,0,0,1-3.33-.94c-.2-.12-.3-.05-.32.18a5.46,5.46,0,0,0,.05,1,8.84,8.84,0,0,0,5.45,7.05,4.75,4.75,0,0,0,1.11.34,9.77,9.77,0,0,1-3.27.1c-.23,0-.32.08-.23.31,1.43,3.91,4.53,5.07,6.85,5.74.31,0,.63,0,.94.13,0,0,0,0-.06,0C15.63,36,13,36.84,11.72,37.27a16.69,16.69,0,0,1-7.11.91c-.39,0-.47,0-.57,0s0,.16.11.26c.48.32,1,.6,1.48.88a23.88,23.88,0,0,0,4.76,1.9c8.54,2.36,18.17.62,24.58-5.75,5-5,6.8-11.91,6.8-18.82,0-.27.32-.42.51-.56a17.14,17.14,0,0,0,3.43-3.48,1.38,1.38,0,0,0,.3-.67v0C46,11.79,45.93,11.83,45.76,11.9Z"/></svg>